<svg width="1280" height="5" viewBox="0 0 1280 5" fill="none" xmlns="http://www.w3.org/2000/svg">
<g clip-path="url(#clip0_617_14797)">
<path d="M1280 0.0104218V4.948H0V0.0104218H1280Z" fill="#FF9D00"/>
<path d="M1280 0.00624638V1.32335L1184.25 4.94799H1100.5L1070.52 3.97212L963.347 0.122767L970.326 0.00416565H1279.99L1280 0.00624638Z" fill="#51CC23"/>
<path d="M1280 0.0104065V4.94798H1107.37C1103.12 4.94798 1280 0.0104065 1280 0.0104065Z" fill="#3D9618"/>
<path d="M1101.33 4.94174L1019.62 4.96047L953.804 4.97503H953.267L864.866 4.99376H839.372L839.777 4.93758C840.937 4.77736 844.529 4.28007 849.714 3.57054L850.348 3.48315C857.042 2.56762 866.219 1.32335 876.151 0H1031.22C1046.04 0.930087 1062.15 2.00375 1075.2 2.91303C1080.27 3.26467 1084.88 3.59342 1088.77 3.87849C1097.48 4.52143 1102.62 4.94174 1101.33 4.94174Z" fill="#38A1D6"/>
<path d="M1051.52 5L817.893 4.94798L783.855 0.0104065H941.793C991.508 2.40741 1041.59 4.57553 1050.22 4.94798L1050.63 4.96671L1051.53 5H1051.52Z" fill="#67C4E8"/>
<path d="M193.689 4.94174L230.874 0.00624084H399.657L459.041 5L193.689 4.94382V4.94174Z" fill="#BA1E6C"/>
<path d="M232.764 0.0062561L227.676 4.94383H0V0.0062561H232.764Z" fill="#EF227F"/>
<path d="M678.367 4.94174H537.304C538.875 4.40491 540.914 3.59759 543.227 2.66542C545.26 1.84561 547.51 0.928011 549.891 0.00416565H693.25L678.372 4.94174H678.367Z" fill="#FF6700"/>
<path d="M521.77 4.94174H380.622L395.288 0.00624084H501.976L521.765 4.94382L521.77 4.94174Z" fill="#FF9D00"/>
</g>
<defs>
<clipPath id="clip0_617_14797">
<rect width="1280" height="5" fill="white"/>
</clipPath>
</defs>
</svg>
