<svg width="96" height="39" viewBox="0 0 96 39" fill="none" xmlns="http://www.w3.org/2000/svg">
<g clip-path="url(#clip0_458_6242)">
<path d="M59.6444 6.07117C59.5022 6.24305 48.0056 10.8117 48.0056 10.8117L48.364 24.9335L53.899 22.7324L54.2801 16.0679L56.2711 16.6889L58.154 20.9138L59.6444 19.877V6.07117Z" fill="#38A1D6"/>
<path d="M58.7115 6.97498C58.7115 6.97498 51.4529 12.7856 50.3835 16.7C49.314 20.6144 48.9102 23.6805 48.9102 23.6805L52.9035 21.9673C52.9035 21.9673 58.2564 19.8382 58.7115 19.4723C59.1666 19.1063 58.7115 6.97498 58.7115 6.97498V6.97498Z" fill="#67C4E8"/>
<path d="M54.4565 16.6945L54.2119 27.5672L59.1496 29.9237V24.4402L55.543 16.4672L54.4565 16.6945Z" fill="#38A1D6"/>
<path d="M55.0823 16.8608C55.2529 17.26 57.8981 25.4105 57.4146 28.2881C57.3861 28.4433 58.9505 29.8516 59.1496 29.5078C59.3487 29.1641 58.7116 24.296 58.7116 24.296L55.0823 16.8608Z" fill="white"/>
<path d="M45.0134 24.0354V28.6041C45.0134 28.6041 47.3685 30.1288 47.5221 30.1288C47.6757 30.1288 49.6667 29.9569 49.917 29.8516C50.1673 29.7462 51.3505 28.776 51.2879 28.6373C51.2253 28.4987 51.2879 23.3756 51.2879 23.3756L48.3697 24.9336L45.0134 24.0354V24.0354Z" fill="#EF227F"/>
<path d="M48.0454 24.9391V30.0955C48.0454 30.0955 45.1045 29.3359 45.1556 28.7426C45.2068 28.1438 44.8086 24.3292 44.9452 24.3015C45.0817 24.2738 48.0454 24.9447 48.0454 24.9447V24.9391Z" fill="#BA1E6C"/>
<path d="M36.3101 6.07117V19.4999L38.4034 20.3649L40.6049 16.1732L41.7426 15.9681L42.4196 22.7379L47.7839 24.9391L48.0057 10.8173L36.3101 6.07671V6.07117Z" fill="#51CC23"/>
<path d="M58.865 5.50563C56.7716 6.27632 47.6358 10.3626 47.6358 10.3626L37.8743 5.50563L48.5972 0.875977L58.8593 5.50563H58.865Z" fill="#FF6700"/>
<path d="M37.2942 6.97498V19.4723L47.0956 23.6805C47.0956 23.6805 37.6867 17.0216 37.2942 6.97498V6.97498Z" fill="#3D9618"/>
<path d="M38.6707 5.6388C38.9835 5.51128 49.8999 5.78296 57.3462 5.61108L48.0568 1.84082L38.6707 5.64435V5.6388Z" fill="#FF9D00"/>
<path d="M40.7471 16.6945L36.5205 25.6599V29.5023C36.5205 29.5023 42.0725 27.4952 42.192 27.3898C42.3115 27.2845 41.8848 17.3931 41.8848 17.3931L41.7426 15.9681L40.7471 16.6945V16.6945Z" fill="#3D9618"/>
<path d="M60.5205 20.0434V5.61103C60.5205 5.61103 60.5205 5.5944 60.5205 5.58885C60.5205 5.58331 60.5205 5.57222 60.5205 5.56668C60.5205 5.21737 60.2986 4.90134 59.963 4.76272L48.4039 0.066534C48.182 -0.022178 47.9317 -0.022178 47.7099 0.066534L36.0427 4.79045C36.0427 4.79045 36.0313 4.79599 36.0256 4.80154C36.0028 4.81262 35.9801 4.82371 35.9516 4.8348C35.9403 4.84035 35.9232 4.85144 35.9118 4.85698C35.9118 4.85698 35.9004 4.85698 35.9004 4.86253C35.8777 4.87361 35.8606 4.89025 35.8436 4.90688C35.8322 4.91243 35.8265 4.91797 35.8151 4.92906C35.781 4.95678 35.7525 4.9845 35.7241 5.01223C35.7241 5.01223 35.7127 5.02332 35.707 5.02886C35.6843 5.05104 35.6672 5.07876 35.6445 5.10648C35.6388 5.11757 35.6274 5.12866 35.6217 5.13975C35.6103 5.16193 35.5933 5.18411 35.5819 5.20628C35.5762 5.21737 35.5705 5.23401 35.5591 5.25064C35.5478 5.27282 35.5421 5.295 35.5307 5.31717C35.5307 5.33381 35.5193 5.3449 35.5136 5.36153C35.5079 5.38371 35.5022 5.41143 35.4966 5.43361C35.4966 5.45024 35.4909 5.46133 35.4909 5.47796C35.4909 5.50569 35.4852 5.53895 35.4852 5.56668C35.4852 5.57777 35.4852 5.58331 35.4852 5.5944C35.4852 5.5944 35.4852 5.5944 35.4852 5.59994C35.4852 5.59994 35.4852 5.59994 35.4852 5.60549V20.0434C35.4852 20.3927 35.6957 20.7087 36.0256 20.8529L37.0325 21.2853L35.5534 24.6841C35.5079 24.795 35.4795 24.9114 35.4795 25.0279V30.4282C35.4795 30.7387 35.6445 31.027 35.9175 31.1823C36.0597 31.2654 36.2247 31.3098 36.384 31.3098C36.5319 31.3098 36.6741 31.2765 36.8106 31.2044L42.6186 28.1938C42.9144 28.0385 43.0965 27.7391 43.0965 27.412V23.8857L43.8075 24.1906V28.5043C43.8075 28.7094 43.8815 28.9035 44.0123 29.0643C44.9566 30.1898 46.2707 30.7553 47.926 30.7553C47.9488 30.7553 47.9772 30.7553 48 30.7553C48.0227 30.7553 48.0512 30.7553 48.0739 30.7553C49.7293 30.7553 51.0434 30.1842 51.9877 29.0643C52.1185 28.909 52.1925 28.7094 52.1925 28.5043V24.1906L52.9035 23.8857V27.412C52.9035 27.7391 53.0856 28.0385 53.3814 28.1938L59.1894 31.2044C59.3202 31.271 59.4681 31.3098 59.616 31.3098C59.7753 31.3098 59.9403 31.2654 60.0825 31.1823C60.3555 31.0215 60.5205 30.7332 60.5205 30.4282V25.0279C60.5205 24.9114 60.4977 24.795 60.4465 24.6841L58.9675 21.2853L59.9744 20.8529C60.3043 20.7142 60.5148 20.3927 60.5148 20.0434H60.5205ZM48 9.72505L43.9099 7.93418L53.4553 4.03085L57.3406 5.61103L48 9.73059V9.72505ZM48.0512 1.83523L51.1059 3.0772L41.6516 6.94726L38.6651 5.63876L48.0512 1.83523V1.83523ZM41.2875 26.8853L37.2941 28.9589V25.2053L40.9234 16.8553L41.2932 16.6889V26.8797L41.2875 26.8853ZM42.6812 14.5709C42.4195 14.4102 42.0953 14.388 41.8165 14.51L39.8426 15.3915C39.6378 15.4858 39.4729 15.6466 39.3875 15.8517L37.7378 19.6552L37.2941 19.4667V6.97498L47.0955 11.272V23.6806L43.1022 21.9673V15.325C43.1022 15.0256 42.9429 14.7428 42.6869 14.582L42.6812 14.5709ZM50.3778 24.9669V28.1661C49.7919 28.7371 49.0353 29.0033 48.0114 28.9866L48 29.8682L47.9886 28.9866C46.9647 28.9977 46.2024 28.7371 45.6222 28.1661V24.9669L47.6359 25.8318C47.6701 25.8485 47.7042 25.8595 47.7383 25.8651C47.7497 25.8651 47.7554 25.8651 47.7668 25.8706C47.7952 25.8762 47.8236 25.8873 47.8578 25.8873C47.8692 25.8873 47.8805 25.8873 47.8919 25.8873C47.9317 25.8873 47.9716 25.8928 48.0057 25.8928C48.0455 25.8928 48.0853 25.8928 48.1195 25.8873C48.1308 25.8873 48.1422 25.8873 48.1536 25.8873C48.182 25.8873 48.2162 25.8762 48.2446 25.8706C48.256 25.8706 48.2617 25.8706 48.273 25.8651C48.3072 25.854 48.3413 25.8429 48.3754 25.8318L50.3892 24.9669H50.3778ZM58.7058 28.9534L54.7125 26.8797V16.6945L55.0822 16.8608L58.7115 25.2108V28.9645L58.7058 28.9534ZM56.6068 15.8517C56.5214 15.6466 56.3565 15.4858 56.1517 15.3915L54.1778 14.51C53.899 14.3824 53.5691 14.4046 53.3131 14.5709C53.0514 14.7317 52.8978 15.0145 52.8978 15.3139V21.9562L48.9045 23.6695V11.2664L58.7058 6.96943V19.4667L58.2621 19.6552L56.6125 15.8517H56.6068Z" fill="#36365B"/>
<path d="M44.7177 30.722C44.2171 30.722 43.8132 31.1157 43.8132 31.6036V37.2147C43.8132 37.7026 44.2171 38.0962 44.7177 38.0962C45.2183 38.0962 45.6222 37.7026 45.6222 37.2147V31.6036C45.6222 31.1157 45.2183 30.722 44.7177 30.722V30.722Z" fill="#36365B"/>
<path d="M51.288 30.722C50.7874 30.722 50.3835 31.1157 50.3835 31.6036V37.2147C50.3835 37.7026 50.7874 38.0962 51.288 38.0962C51.7886 38.0962 52.1925 37.7026 52.1925 37.2147V31.6036C52.1925 31.1157 51.7886 30.722 51.288 30.722V30.722Z" fill="#36365B"/>
<path d="M47.9999 31.6259C47.4993 31.6259 47.0955 32.0195 47.0955 32.5074V38.1185C47.0955 38.6064 47.4993 39 47.9999 39C48.5005 39 48.9044 38.6064 48.9044 38.1185V32.5074C48.9044 32.0195 48.5005 31.6259 47.9999 31.6259Z" fill="#36365B"/>
<path d="M58.7115 6.97503V19.4723C58.7115 19.4723 58.1711 19.7052 58.2678 19.6608C58.3645 19.6165 56.8058 7.72908 57.1358 7.66254C57.4657 7.59601 58.7115 6.96948 58.7115 6.96948V6.97503Z" fill="white"/>
<path d="M45.2468 10.4569L46.157 23.2758L47.0956 23.675V11.2664L45.2468 10.4569Z" fill="white"/>
<path d="M55.9298 5.03992L48 9.73056L57.3406 5.611L55.9298 5.03992Z" fill="white"/>
<path d="M41.2876 16.6945C41.2876 16.6945 37.9257 23.5475 37.8859 28.6484C37.8859 28.9367 37.2886 28.9589 37.2886 28.9589V25.2053L41.2819 16.6945H41.2876Z" fill="white"/>
<path d="M50.3778 26.9962C50.3778 26.9962 49.5984 28.776 45.6165 28.1717C45.6165 28.1717 46.5835 29.1974 47.9829 28.9922C49.3823 28.7871 49.8942 28.7206 50.3721 28.1717V26.9962H50.3778Z" fill="white"/>
<path d="M5.7795 23.2259C5.64297 22.993 5.48369 22.7823 5.29597 22.5938C5.10825 22.4053 4.89777 22.2389 4.66454 22.1059C4.43131 21.9728 4.1867 21.8675 3.92503 21.7898C3.65767 21.7178 3.38462 21.679 3.10019 21.679C2.81576 21.679 2.53702 21.7178 2.27535 21.7898C2.01367 21.8619 1.76338 21.9673 1.53584 22.1059C1.30829 22.2445 1.09782 22.4053 0.910095 22.5938C0.722373 22.7823 0.563093 22.993 0.426568 23.2259C0.290043 23.4587 0.187649 23.7082 0.113698 23.9688C0.0397465 24.235 0.00561523 24.5122 0.00561523 24.795C0.00561523 25.0777 0.0397465 25.3605 0.113698 25.6211C0.187649 25.8872 0.290043 26.1312 0.426568 26.3641C0.563093 26.5914 0.722373 26.8021 0.910095 26.9906C1.09782 27.1791 1.30829 27.3399 1.53584 27.4785C1.76338 27.6116 2.01367 27.7169 2.27535 27.7945C2.53702 27.8666 2.81576 27.9054 3.10019 27.9054C3.38462 27.9054 3.65767 27.8666 3.92503 27.7945C4.19239 27.7225 4.437 27.6171 4.66454 27.4785C4.89208 27.3454 5.10256 27.1791 5.29597 26.9906C5.48369 26.8021 5.64866 26.5914 5.7795 26.3641C5.91602 26.1367 6.01841 25.8872 6.09237 25.6211C6.16632 25.355 6.20614 25.0777 6.20614 24.795C6.20614 24.5122 6.16632 24.2294 6.09237 23.9688C6.01841 23.7027 5.91602 23.4532 5.7795 23.2259ZM4.52233 25.427C4.44837 25.6211 4.34029 25.793 4.20377 25.9371C4.06724 26.0813 3.90796 26.1977 3.72024 26.2809C3.53252 26.3641 3.32773 26.4029 3.10019 26.4029C2.87265 26.4029 2.67355 26.3641 2.48582 26.2809C2.2981 26.1977 2.13882 26.0813 2.0023 25.9371C1.86577 25.793 1.75769 25.6211 1.68374 25.427C1.60979 25.233 1.56997 25.0223 1.56997 24.795C1.56997 24.5676 1.60979 24.3625 1.68374 24.1684C1.75769 23.9688 1.86577 23.8025 2.0023 23.6528C2.13882 23.5086 2.2981 23.3922 2.48582 23.309C2.67355 23.2259 2.87833 23.1815 3.10019 23.1815C3.32204 23.1815 3.53252 23.2259 3.72024 23.309C3.90796 23.3922 4.06724 23.5086 4.20377 23.6528C4.34029 23.797 4.44837 23.9688 4.52233 24.1684C4.59628 24.368 4.6361 24.5732 4.6361 24.795C4.6361 25.0167 4.59628 25.233 4.52233 25.427Z" fill="#212138"/>
<path d="M11.5933 27.4119L10.5522 25.4381C10.7001 25.3549 10.831 25.2551 10.9561 25.1332C11.0813 25.0112 11.1837 24.8837 11.2747 24.7395C11.3657 24.5953 11.434 24.4401 11.4852 24.2738C11.5364 24.1074 11.5591 23.93 11.5591 23.747C11.5591 23.4754 11.5079 23.2203 11.4055 22.9819C11.3031 22.7435 11.1609 22.5328 10.9789 22.3554C10.7969 22.1779 10.5864 22.0338 10.3418 21.9284C10.0972 21.8231 9.83549 21.7732 9.56244 21.7732H6.94571C6.88882 21.7732 6.84331 21.7898 6.80918 21.8231C6.78074 21.8564 6.76367 21.9007 6.76367 21.9617V27.6448C6.76367 27.7058 6.78074 27.7502 6.81487 27.7779C6.849 27.8056 6.88882 27.8222 6.94571 27.8222H8.15168C8.27683 27.8222 8.3394 27.7613 8.3394 27.6448V25.8096H8.99358L9.9777 27.6725C9.98908 27.7169 10.0118 27.7557 10.046 27.7834C10.0801 27.8112 10.1256 27.8222 10.1711 27.8222H11.5591C11.6103 27.8222 11.6444 27.8112 11.6729 27.789C11.7013 27.7668 11.7127 27.7335 11.7127 27.6892C11.7127 27.6504 11.6956 27.606 11.6672 27.5561C11.6388 27.5062 11.6103 27.4618 11.5933 27.423V27.4119ZM9.89237 24.0187C9.86393 24.1019 9.82411 24.174 9.77292 24.2405C9.72172 24.307 9.65914 24.3625 9.58519 24.4068C9.51124 24.4512 9.42591 24.4789 9.32921 24.49C9.2837 24.49 9.24388 24.5011 9.20406 24.5011C9.16424 24.5011 9.12442 24.5011 9.07322 24.5011H8.32802V23.0041H8.8855C8.96514 23.0041 9.0334 23.0041 9.10167 23.0096C9.16993 23.0096 9.23819 23.0207 9.31214 23.0262C9.40316 23.0373 9.48849 23.0706 9.56244 23.115C9.63639 23.1593 9.70465 23.2203 9.75585 23.2868C9.80705 23.3534 9.85256 23.431 9.881 23.5086C9.90944 23.5918 9.92651 23.6694 9.92651 23.7526C9.92651 23.8413 9.91513 23.9245 9.88669 24.0076L9.89237 24.0187Z" fill="#212138"/>
<path d="M17.2022 23.2536C17.0657 23.0262 16.9064 22.8266 16.7187 22.6437C16.5309 22.4607 16.3205 22.3055 16.0929 22.1779C15.8654 22.0449 15.6208 21.9451 15.3534 21.8785C15.0917 21.8065 14.8187 21.7732 14.5343 21.7732H12.5376C12.475 21.7732 12.4295 21.7898 12.3954 21.8286C12.3669 21.8619 12.3499 21.9118 12.3499 21.9672V27.6559C12.3499 27.728 12.3669 27.7723 12.4067 27.7945C12.4466 27.8167 12.4864 27.8278 12.5376 27.8278H14.5343C14.8187 27.8278 15.0917 27.7945 15.3591 27.7224C15.6265 27.6559 15.8711 27.5561 16.0986 27.4286C16.3262 27.3011 16.5366 27.1458 16.7244 26.9628C16.9121 26.7799 17.0714 26.5803 17.2079 26.3529C17.3444 26.1312 17.4468 25.8872 17.5207 25.6266C17.5947 25.366 17.6288 25.0943 17.6288 24.806C17.6288 24.5177 17.589 24.246 17.5151 23.9854C17.4411 23.7249 17.3387 23.4809 17.2022 23.2591V23.2536ZM15.9564 25.3938C15.8824 25.5767 15.7801 25.732 15.6492 25.8706C15.5184 26.0092 15.3648 26.1145 15.1884 26.1977C15.0121 26.2809 14.8244 26.3308 14.6196 26.3474C14.5627 26.3474 14.5001 26.3585 14.4432 26.364C14.3864 26.364 14.3238 26.3696 14.2612 26.3696H13.9199V23.2369H14.4546C14.6765 23.2369 14.8869 23.2758 15.0804 23.3534C15.2738 23.431 15.4444 23.5419 15.5923 23.6805C15.7402 23.8191 15.854 23.9854 15.9393 24.1795C16.0247 24.3736 16.0645 24.5787 16.0645 24.806C16.0645 25.0223 16.0247 25.2163 15.9507 25.3993L15.9564 25.3938Z" fill="#212138"/>
<path d="M22.4471 26.4195H19.7222V25.3771H21.7531C21.8099 25.3771 21.8554 25.3605 21.8839 25.3217C21.9123 25.2884 21.9294 25.2496 21.9294 25.2108V24.3292C21.9294 24.2738 21.9123 24.2294 21.8782 24.2073C21.8441 24.1851 21.8042 24.1684 21.7531 24.1684H19.7279V23.1593H22.356C22.4186 23.1593 22.4641 23.1372 22.4982 23.0984C22.5324 23.054 22.5494 23.0152 22.5494 22.9653V21.9562C22.5494 21.8952 22.5324 21.8508 22.4982 21.812C22.4641 21.7788 22.4186 21.7566 22.3617 21.7566H18.3399C18.283 21.7566 18.2375 21.7732 18.2091 21.8065C18.1806 21.8398 18.1636 21.8841 18.1636 21.9451V27.6282C18.1636 27.6892 18.1806 27.7336 18.2148 27.7613C18.2489 27.789 18.2887 27.8056 18.3456 27.8056H22.4414C22.5438 27.8056 22.595 27.7668 22.6063 27.6892C22.6291 27.667 22.6405 27.6448 22.6405 27.6171V26.5914C22.6405 26.4694 22.5779 26.4029 22.4584 26.4029L22.4471 26.4195Z" fill="#212138"/>
<path d="M28.0674 27.5506C28.039 27.5007 28.0162 27.4564 27.9935 27.4176L26.9525 25.4437C27.1004 25.3606 27.2312 25.2608 27.3564 25.1388C27.4815 25.0223 27.5839 24.8893 27.6749 24.7451C27.7659 24.601 27.8342 24.4457 27.8854 24.2794C27.9366 24.113 27.9593 23.9356 27.9593 23.7527C27.9593 23.481 27.9081 23.2259 27.8058 22.9875C27.7034 22.7491 27.5611 22.5384 27.3791 22.361C27.1971 22.1836 26.9866 22.0394 26.742 21.9341C26.4974 21.8287 26.2357 21.7788 25.957 21.7788H23.3402C23.2834 21.7788 23.2378 21.7954 23.2037 21.8287C23.1753 21.862 23.1582 21.9063 23.1582 21.9673V27.6504C23.1582 27.7114 23.1753 27.7558 23.2094 27.7835C23.2435 27.8112 23.2834 27.8279 23.3402 27.8279H24.5462C24.6714 27.8279 24.7339 27.7669 24.7339 27.6504V25.8152H25.3881L26.3722 27.6782C26.3836 27.7225 26.4064 27.7613 26.4405 27.789C26.4746 27.8168 26.5201 27.8279 26.5656 27.8279H27.9537C28.0049 27.8279 28.039 27.8168 28.0674 27.7946C28.0959 27.7724 28.1072 27.7391 28.1072 27.6948C28.1072 27.656 28.0902 27.6116 28.0617 27.5617L28.0674 27.5506ZM26.2926 24.0188C26.2642 24.102 26.2243 24.174 26.1731 24.2406C26.1219 24.3071 26.0594 24.3625 25.9854 24.4069C25.9115 24.4513 25.8261 24.479 25.7294 24.4901C25.6839 24.4901 25.6441 24.5012 25.6043 24.5012C25.5645 24.5012 25.5246 24.5012 25.4734 24.5012H24.7282V23.0041H25.2857C25.3654 23.0041 25.4336 23.0041 25.5019 23.0097C25.5702 23.0097 25.6384 23.0208 25.7124 23.0263C25.8034 23.0374 25.8887 23.0707 25.9627 23.115C26.0366 23.1594 26.1049 23.2204 26.1561 23.2869C26.2073 23.3534 26.2528 23.4311 26.2812 23.5087C26.3097 23.5919 26.3267 23.6695 26.3267 23.7527C26.3267 23.8414 26.3153 23.9245 26.2869 24.0077L26.2926 24.0188Z" fill="#212138"/>
<path d="M5.38137 13.1127C5.38137 14.6208 5.25622 15.7907 5.00024 16.6168C4.53946 18.0861 3.80564 19.2338 2.78739 20.0655C2.66793 20.1709 2.57123 20.2208 2.49727 20.2208C2.42901 20.2208 2.36075 20.1819 2.29249 20.1043C2.07632 19.8548 1.7407 19.4833 1.27992 18.9899C1.01256 18.7736 0.620052 18.4354 0.102394 17.9752C0.0341313 17.9032 0 17.8422 0 17.7923C0 17.7368 0.0341313 17.6814 0.102394 17.6204C0.563167 17.2267 0.853283 16.9606 0.978431 16.8164C1.21735 16.5337 1.40507 16.1788 1.53591 15.7463C1.70657 15.1586 1.79758 14.1994 1.79758 12.8577C1.79758 9.75275 1.68381 8.54959 1.46196 6.84188C1.45058 6.78089 1.44489 6.73654 1.44489 6.70327C1.44489 6.59238 1.5416 6.54248 1.7407 6.54248C1.9398 6.54248 2.22991 6.55357 2.61673 6.5702C3.00356 6.58684 3.29367 6.59793 3.49277 6.59793C3.68049 6.59793 3.95354 6.58684 4.31761 6.5702C4.68168 6.55357 4.96042 6.54248 5.14245 6.54248C5.32448 6.54248 5.40981 6.6201 5.40981 6.77535C5.40981 7.60702 5.40412 8.86563 5.39275 10.5401C5.38137 12.2145 5.37568 12.2755 5.37568 13.1127H5.38137Z" fill="#212138"/>
<path d="M16.8437 16.4117C16.8437 16.6723 16.7925 17.1491 16.6844 17.8422C16.5707 18.5962 16.474 19.0453 16.3886 19.1895C16.3147 19.3059 16.2123 19.3614 16.0815 19.3614C16.0246 19.3614 15.9335 19.3503 15.8027 19.3337C15.3476 19.2727 14.0336 19.2449 11.8435 19.2449C11.3656 19.2449 10.6546 19.2449 9.71596 19.2338C8.77166 19.2283 8.06628 19.2228 7.59982 19.2228C7.39503 19.2228 7.29264 19.134 7.29264 18.9622C7.29264 18.2857 7.33246 17.2711 7.40641 15.9127C7.48605 14.5598 7.52018 13.5397 7.52018 12.8632C7.52018 12.1868 7.48036 10.8894 7.40641 9.01534C7.38934 8.53297 7.35521 7.81218 7.30402 6.85298L7.29264 6.72546C7.28126 6.58685 7.35521 6.51477 7.52587 6.51477C7.98664 6.51477 8.67496 6.52586 9.59081 6.55358C10.5124 6.57576 11.2007 6.59239 11.6558 6.59239C12.1108 6.59239 12.7878 6.5813 13.6979 6.55358C14.6081 6.5314 15.2907 6.51477 15.7401 6.51477C16.0644 6.51477 16.2464 6.63121 16.2976 6.86962C16.3261 7.00823 16.3773 7.42961 16.4398 8.13376C16.5024 8.83792 16.5365 9.26484 16.5365 9.41454C16.5365 9.54207 16.474 9.60306 16.3488 9.60306C16.309 9.60306 16.2464 9.60306 16.1554 9.59197C14.5057 9.4589 13.0267 9.39237 11.7126 9.39237C11.3827 9.39237 11.1836 9.46999 11.1097 9.61969C11.0812 9.69177 11.0641 9.92464 11.0641 10.3183C11.0641 10.712 11.1267 11.0003 11.2519 11.1333C11.36 11.2498 11.5591 11.3052 11.8549 11.3052C11.9174 11.3052 12.0369 11.3052 12.2189 11.2941C12.401 11.283 12.5489 11.283 12.6626 11.283C13.442 11.283 14.2327 11.2609 15.0348 11.222C15.103 11.2165 15.2737 11.1999 15.5467 11.1777C15.7572 11.1555 15.9222 11.1389 16.0473 11.1389C16.1952 11.1389 16.2692 11.211 16.2692 11.3496C16.2692 11.222 16.2123 11.6822 16.1042 12.7357C16.053 13.2181 16.0303 13.7004 16.0303 14.1828C16.0303 14.3048 15.9392 14.3658 15.7629 14.3658L14.9267 14.2771C14.574 14.2383 13.7662 14.2216 12.509 14.2216H11.5249C11.2689 14.2216 11.121 14.2826 11.0812 14.4046C11.0755 14.4323 11.0698 14.6208 11.0698 14.9646C11.0698 15.4248 11.0983 15.7186 11.1609 15.8517C11.2689 16.079 11.6614 16.2176 12.3498 16.262C12.3384 16.262 12.7878 16.262 13.7036 16.262C14.0336 16.262 14.5171 16.2343 15.1656 16.1733C15.8141 16.1178 16.2976 16.0846 16.6219 16.0846C16.7584 16.0846 16.8266 16.1955 16.8266 16.4117H16.8437Z" fill="#212138"/>
<path d="M27.8283 9.29813C27.8283 9.42011 27.76 9.4811 27.6235 9.4811C27.3903 9.4811 26.4574 9.43674 24.8247 9.34248C24.7849 10.8728 24.7679 11.9373 24.7679 12.5417C24.7679 13.2569 24.7963 14.327 24.8589 15.7575C24.9158 17.1879 24.9499 18.258 24.9499 18.9733C24.9499 19.0897 24.9215 19.1618 24.8646 19.1895C24.8475 19.2006 24.7565 19.2172 24.6029 19.2339C24.2331 19.2838 23.687 19.3059 22.9703 19.3059C22.1739 19.3059 21.6107 19.2838 21.2865 19.2339C21.1158 19.2061 21.0248 19.1119 21.0248 18.9511C21.0248 18.2414 21.0532 17.1713 21.1158 15.7464C21.1784 14.3214 21.2068 13.2514 21.2068 12.5417C21.2068 12.0704 21.1841 11.0225 21.1329 9.39238C19.8928 9.51436 18.9087 9.57535 18.1691 9.57535C18.0724 9.57535 18.0212 9.54763 18.0212 9.48664C18.0212 9.40902 18.0667 9.17615 18.1521 8.78803C18.2488 8.36665 18.3057 8.10606 18.317 8.01735C18.3341 7.73458 18.3569 7.45181 18.3796 7.1635C18.4251 6.70885 18.4991 6.48152 18.6015 6.48152C18.6128 6.48152 18.6584 6.48152 18.7323 6.49261C19.7335 6.62013 21.2182 6.68112 23.1808 6.68112C23.7382 6.68112 24.7679 6.62568 26.264 6.50924C27.0717 6.44825 27.4756 6.42053 27.4813 6.42053C27.6065 6.42053 27.6747 6.42608 27.6975 6.44271C27.7145 6.45934 27.7259 6.51479 27.7373 6.62013C27.7373 6.78092 27.7316 7.00825 27.7202 7.30211C27.7088 7.62369 27.7032 7.85101 27.7032 7.98408C27.7032 8.13378 27.7259 8.35556 27.7657 8.64942C27.8055 8.94328 27.8283 9.15951 27.8283 9.30367V9.29813Z" fill="#212138"/>
<path d="M94.6065 21.8342H93.5314C93.3994 21.8342 93.2925 21.9385 93.2925 22.0671V27.473C93.2925 27.6016 93.3994 27.7059 93.5314 27.7059H94.6065C94.7385 27.7059 94.8455 27.6016 94.8455 27.473V22.0671C94.8455 21.9385 94.7385 21.8342 94.6065 21.8342Z" fill="#212138"/>
<path d="M76.6991 27.8944C74.7536 27.8944 73.5248 27.8944 73.4281 27.8944H73.4168C73.2575 27.8888 73.1323 27.7557 73.1323 27.6005V26.5914C73.1323 26.4306 73.2688 26.2975 73.4338 26.2975H73.4452C73.485 26.2975 74.9527 26.2975 75.8401 26.2975H76.7104C76.7616 26.2975 76.8128 26.2975 76.864 26.2809C76.9209 26.2698 76.9664 26.2587 77.0119 26.2365C77.1086 26.1977 77.1883 26.1423 77.2565 26.0758C77.3248 26.0092 77.376 25.9316 77.4101 25.8373C77.4443 25.7542 77.4613 25.671 77.467 25.5823V24.7673V23.9467C77.467 23.858 77.4443 23.7748 77.4101 23.6972C77.3703 23.6029 77.3191 23.5253 77.2565 23.4588C77.1883 23.3922 77.1029 23.3368 77.0119 23.298C76.9664 23.2813 76.9266 23.2647 76.8811 23.2536C76.8811 23.2536 76.8697 23.2536 76.8583 23.2536H74.526C74.3611 23.2536 74.2245 23.1205 74.2245 22.9597V22.0671C74.2245 21.9839 74.2416 21.9063 74.2814 21.8342C74.3554 21.7122 74.4805 21.6512 74.6341 21.6512H76.8754C76.8754 21.6512 76.8925 21.6512 76.9038 21.6512C77.0517 21.6623 77.194 21.6901 77.3362 21.7289C77.5353 21.7843 77.7287 21.8619 77.8993 21.9617C78.0757 22.0615 78.235 22.1835 78.3772 22.3221C78.5194 22.4607 78.6388 22.616 78.7412 22.7879C78.8436 22.9597 78.9233 23.1427 78.9745 23.3368C79.02 23.4976 79.0484 23.6694 79.0541 23.8469C79.0541 23.8801 79.0541 23.9134 79.0541 23.9467V24.7728V25.5989C79.0541 25.6322 79.0541 25.6655 79.0541 25.6932C79.0484 25.8706 79.02 26.0425 78.9745 26.2033C78.9233 26.3973 78.8436 26.5803 78.7412 26.7522C78.6388 26.9241 78.5137 27.0793 78.3772 27.2179C78.235 27.3565 78.0757 27.4785 77.8993 27.5783C77.7287 27.6781 77.5353 27.7557 77.3362 27.8112C77.194 27.85 77.0461 27.8777 76.8925 27.8888C76.8242 27.8888 76.7559 27.8944 76.6991 27.8944V27.8944Z" fill="#212138"/>
<path d="M92.5641 23.9411C92.5641 23.736 92.5357 23.5308 92.4845 23.3312C92.4276 23.1372 92.3536 22.9486 92.2513 22.7823C92.1489 22.616 92.0294 22.4607 91.8872 22.3166C91.745 22.178 91.5857 22.056 91.4093 21.9562C91.233 21.8564 91.0453 21.7788 90.8462 21.7233C90.6414 21.6679 90.4252 21.6401 90.2034 21.6401C89.9872 21.6401 89.771 21.6679 89.5719 21.7178C89.3672 21.7732 89.1794 21.8508 89.0088 21.9451C88.8324 22.0449 88.6732 22.1669 88.5309 22.3055C88.3887 22.4441 88.2636 22.5993 88.1669 22.7657C88.0702 22.932 87.9905 23.115 87.9336 23.3146C87.8768 23.5142 87.854 23.7138 87.854 23.9189V24.4124C87.854 24.4124 87.854 24.4401 87.854 24.4512V24.7672V25.2108C87.854 25.2274 87.854 25.2441 87.854 25.2551V25.3439C87.854 25.5047 87.9905 25.6322 88.1555 25.6322H89.3842H90.1465H90.9713C90.9656 25.7043 90.9486 25.7708 90.9201 25.8318C90.8803 25.9205 90.8291 25.9981 90.7665 26.0702C90.6983 26.1367 90.6186 26.1922 90.5219 26.231C90.4309 26.2698 90.3285 26.292 90.2147 26.292H86.7732C86.6082 26.292 86.4717 26.425 86.4717 26.5858V27.5949C86.4717 27.7502 86.5968 27.8777 86.7561 27.8888C86.8073 27.8888 87.5696 27.8888 90.2091 27.8888C90.4309 27.8888 90.6471 27.8611 90.8462 27.8056C91.0453 27.7502 91.2387 27.6726 91.4093 27.5727C91.5857 27.4729 91.745 27.351 91.8872 27.2124C92.0294 27.0737 92.1489 26.9185 92.2513 26.7466C92.3536 26.5747 92.4276 26.3918 92.4845 26.1977C92.5414 26.0037 92.5641 25.7985 92.5641 25.5878V24.7783V23.9356V23.9411ZM91.1534 24.1518C91.1534 24.2571 91.068 24.3403 90.9599 24.3403H90.0839H89.3899C89.2818 24.3403 89.1965 24.2571 89.1965 24.1518V24.1296C89.1965 24.0908 89.1965 24.052 89.1965 24.0187C89.1965 23.9799 89.2022 23.9466 89.2079 23.9078C89.2193 23.7859 89.2534 23.6694 89.3046 23.5585C89.3615 23.4532 89.4297 23.3534 89.5151 23.2758C89.6004 23.1981 89.7028 23.1316 89.8222 23.0873C89.9417 23.0429 89.9986 23.0207 90.1351 23.0207C90.283 23.0207 90.4195 23.0484 90.539 23.0983C90.6641 23.1538 90.7665 23.2203 90.8576 23.309C90.9486 23.3977 91.0168 23.5031 91.068 23.6251C91.1192 23.747 91.142 23.8746 91.142 24.0076V24.1407L91.1534 24.1518Z" fill="#212138"/>
<path d="M91.1707 21.0191C90.363 20.8417 89.9079 20.8084 89.0773 21.0912C88.9238 21.0912 88.8043 20.9692 88.8043 20.8251L88.5312 18.7847C88.5312 18.635 88.6564 18.5186 88.8043 18.5186C89.6405 18.319 90.7725 18.1083 91.5576 18.3966C91.7396 18.4631 91.8306 18.5186 91.8306 18.6627L91.4495 20.753C91.4495 20.9027 91.3243 21.0191 91.1764 21.0191H91.1707Z" fill="#212138"/>
<path d="M74.2471 10.1187C73.4962 9.88027 72.4381 9.75829 71.6872 9.99671C71.5507 9.99671 71.4369 9.88582 71.4369 9.75275L71.3118 7.44624C71.3118 7.31317 71.4199 7.20228 71.5621 7.20228C72.313 7.02486 73.4336 7.01931 74.1845 7.19673C74.321 7.19673 74.4348 7.30762 74.4348 7.44069L74.4917 9.87473C74.4917 10.0078 74.3779 10.1187 74.2414 10.1187H74.2471Z" fill="#212138"/>
<path d="M78.2065 10.0965C77.4215 9.84699 76.5113 9.59749 75.7263 9.84145C75.5841 9.84145 75.4646 9.73056 75.4646 9.5864V7.29652C75.4646 7.15791 75.5784 7.04148 75.7263 7.04148C76.5113 6.85851 77.6262 6.8696 78.4113 7.05256C78.5535 7.05256 78.6729 7.16345 78.6729 7.30761L78.4682 9.84145C78.4682 9.98006 78.3544 10.0965 78.2065 10.0965V10.0965Z" fill="#212138"/>
<path d="M66.7383 27.8721C66.5506 27.8721 66.397 27.7224 66.397 27.5394V26.6024C66.397 26.4194 66.5506 26.2697 66.7383 26.2697H69.082C70.2254 26.2697 71.1583 25.3604 71.1583 24.246V21.9783C71.1583 21.7953 71.3119 21.6456 71.4996 21.6456H72.461C72.6487 21.6456 72.8023 21.7953 72.8023 21.9783V24.4733C72.8023 26.3474 71.2379 27.8721 69.3209 27.8721H66.7383V27.8721Z" fill="#212138"/>
<path d="M79.9529 27.8721C79.7652 27.8721 79.6116 27.7224 79.6116 27.5394V26.6024C79.6116 26.4194 79.7652 26.2697 79.9529 26.2697H82.2966C83.44 26.2697 84.3729 25.3604 84.3729 24.246V21.9783C84.3729 21.7953 84.5265 21.6456 84.7142 21.6456H85.6756C85.8633 21.6456 86.0169 21.7953 86.0169 21.9783V24.4733C86.0169 26.3474 84.4525 27.8721 82.5355 27.8721H79.9529Z" fill="#212138"/>
<path d="M95.875 13.0074C91.8475 11.0723 88.9975 8.08386 88.1272 6.29299C87.9679 5.96032 87.3535 5.93259 87.2341 6.2819C86.8871 7.28545 85.8233 8.7492 85.2317 9.13731C85.1065 9.22048 85.2089 9.39236 85.2658 9.52543C85.8062 10.723 88.605 12.3365 90.1864 13.0351C90.6927 13.2569 90.6756 13.8889 90.0215 13.828C88.6846 13.706 85.5389 13.7559 84.4125 14.1163C83.9973 13.7004 83.2862 12.9907 82.8482 12.5527C82.8254 9.66958 83.1212 8.06722 83.3886 7.27436C83.4114 7.20783 83.4057 7.14684 83.3772 7.09139C83.3147 6.95833 83.1383 6.91951 83.0132 6.99714C82.0802 7.56268 80.9425 7.66802 79.6683 7.46287C79.6114 7.45179 79.5488 7.46287 79.5033 7.4906C79.4294 7.53495 79.3839 7.61258 79.3839 7.70129L79.8901 14.205C79.8901 14.3713 79.9982 15.1697 78.7752 15.0422C75.4929 14.6874 72.1708 15.0644 70.9819 15.0644C69.9466 15.0644 69.975 14.1939 69.9978 14.0276C70.3334 11.7377 70.14 8.74365 70.1286 7.72901C70.1286 7.66802 70.1058 7.61258 70.066 7.56822C69.9977 7.48505 69.8783 7.50169 69.7702 7.51278C68.3993 7.66802 67.3526 7.26327 65.9532 6.91397C65.8963 6.89734 65.8337 6.90288 65.7825 6.9306C65.6801 6.98605 65.6233 7.09694 65.6574 7.20783C66.9316 11.1389 66.2149 17.2101 66.0556 18.5408C66.0385 18.7016 66.1807 18.8513 66.3457 18.818C72.057 17.759 79.8617 18.4742 82.2566 18.7404C82.5183 18.7681 82.7458 18.5796 82.7685 18.3245L82.8709 17.4707C82.888 17.26 83.1554 17.1713 83.2976 17.3321C83.5024 17.565 83.6958 17.9586 83.9404 18.2192C84.111 18.4022 84.3898 18.5408 84.6173 18.4354C88.1613 16.8331 92.5585 17.6093 93.975 17.8034C94.1741 17.8311 94.3504 17.6925 94.3789 17.504C94.5495 16.1123 94.9648 14.2937 95.9375 13.3789C96.0513 13.2735 96.0286 13.085 95.8863 13.0185L95.875 13.0074Z" fill="#212138"/>
</g>
<defs>
<clipPath id="clip0_458_6242">
<rect width="96" height="39" fill="white"/>
</clipPath>
</defs>
</svg>
